{"title":"Kyaa Super Kool Hain Hum (Hindi) 2012 DVDSCR XviD-NRG","uid":7523134,"size":946055346,"categoryP":"video","categoryS":"movies","magnet":"?xt=urn:btih:e7c33d019bf88e48fd55aa0863a9bfd64c08ef35&amp;dn=Kyaa+Super+Kool+Hain+Hum+%28Hindi%29+2012+DVDSCR+XviD-NRG&amp;tr=udp%3A%2F%2Ftracker.openbittorrent.com%3A80&amp;tr=udp%3A%2F%2Fopen.demonii.com%3A1337&amp;tr=udp%3A%2F%2Ftracker.coppersurfer.tk%3A6969&amp;tr=udp%3A%2F%2Fexodus.desync.com%3A6969","seeders":0,"leechers":0,"uploader":"vakas123","files":-1,"time":1344692842,"description":"Screenshots: (Click Link Before Download To Check Quality!)\n &lt;a href=&quot;\nhttp://iwatchonlinemovie.in/kyaa-super-kool-hain-hum-movie/&quot; rel=&quot;nofollow&quot; target=&quot;_NEW&quot;&gt;\nhttp://iwatchonlinemovie.in/kyaa-super-kool-hain-hum-movie/&lt;/a&gt;\n\nNFO:\nFormat : AVI\nFormat/Info : Audio Video Interleave\nFile size : 902 MiB\nDuration : 2h 15mn\nOverall bit rate : 929 Kbps\n\nVideo\nID : 0\nFormat : MPEG-4 Visual\nFormat profile : Advanced Simple@L5\nFormat settings, BVOP : 2\nFormat settings, QPel : Yes\nFormat settings, GMC : 3 warppoints\nFormat settings, Matrix : Default (H.263)\nCodec ID : XVID\nCodec ID/Hint : XviD\nDuration : 2h 15mn\nBit rate : 793 Kbps\nWidth : 640 pixels\nHeight : 272 pixels\nDisplay aspect ratio : 2.35:1\nFrame rate : 23.976 fps\nColor space : YUV\nChroma subsampling : 4:2:0\nBit depth : 8 bits\nScan type : Progressive\nCompression mode : Lossy\nBits/(Pixel*Frame) : 0.190\nStream size : 770 MiB (85%)\nWriting library : XviD 1.2.1 (UTC 2008-12-04)\n\nAudio\nID : 1\nFormat : AC-3\nFormat/Info : Audio Coding 3\nMode extension : CM (complete main)\nFormat settings, Endianness : Big\nCodec ID : 2000\nDuration : 2h 15mn\nBit rate mode : Constant\nBit rate : 128 Kbps\nChannel(s) : 2 channels\nChannel positions : Front: L R\nSampling rate : 48.0 KHz\nBit depth : 16 bits\nCompression mode : Lossy\nStream size : 124 MiB (14%)\nAlignment : Aligned on interleaves\nInterleave, duration : 64 ms (1.53 video frames)\nInterleave, preload duration : 192 ms","torrent":{"xt":"urn:btih:e7c33d019bf88e48fd55aa0863a9bfd64c08ef35","amp;dn":"Kyaa+Super+Kool+Hain+Hum+%28Hindi%29+2012+DVDSCR+XviD-NRG","amp;tr":["udp%3A%2F%2Ftracker.openbittorrent.com%3A80","udp%3A%2F%2Fopen.demonii.com%3A1337","udp%3A%2F%2Ftracker.coppersurfer.tk%3A6969","udp%3A%2F%2Fexodus.desync.com%3A6969"],"infoHash":"e7c33d019bf88e48fd55aa0863a9bfd64c08ef35","infoHashBuffer":{"type":"Buffer","data":[231,195,61,1,155,248,142,72,253,85,170,8,99,169,191,214,76,8,239,53]},"announce":[],"urlList":[]}}